<?xml version="1.0" encoding="ISO-8859-1" standalone="no"?>
<!DOCTYPE svg PUBLIC "-//W3C//DTD SVG 1.1//EN" "http://www.w3.org/Graphics/SVG/1.1/DTD/svg11.dtd">
<svg version="1.1" baseProfile="full" id="body" width="8in" height="8in" viewBox="0 0 1 1" preserveAspectRatio="none" xmlns="http://www.w3.org/2000/svg" xmlns:xlink="http://www.w3.org/1999/xlink" xmlns:ev="http://www.w3.org/2001/xml-events">
<title>SVG drawing</title>
<desc>This was produced by version 4.4 of GNU libplot, a free library for exporting 2-D vector graphics.</desc>
<rect id="background" x="0" y="0" width="1" height="1" stroke="none" fill="white"/>
<g id="content" transform="translate(0.05,0.28125) scale(1,-1) scale(0.125) " xml:space="preserve" stroke="black" stroke-linecap="butt" stroke-linejoin="miter" stroke-miterlimit="10.433" stroke-dasharray="none" stroke-dashoffset="0" stroke-opacity="1" fill="none" fill-rule="evenodd" fill-opacity="1" font-style="normal" font-variant="normal" font-weight="normal" font-stretch="normal" font-size-adjust="none" letter-spacing="normal" word-spacing="normal" text-anchor="start">
<circle cx="0.15" cy="0.19" r="0.06" stroke-width="0.0094118" />
<line x1="0.15" y1="0.13" x2="0.15" y2="0.01" stroke-width="0.0094118" />
<line x1="0" y1="0.11" x2="0.3" y2="0.11" stroke-width="0.0094118" />
<line x1="0.15" y1="0.01" x2="0.07" y2="-0.14" stroke-width="0.0094118" />
<line x1="0.15" y1="0.01" x2="0.23" y2="-0.14" stroke-width="0.0094118" />
<text transform="translate(0.10368,-0.29903) scale(1,-1) scale(0.0069444) " font-family="Helvetica,sans-serif" font-size="20px" stroke="none" fill="black" >A</text>
<rect x="1.05" y="-0.25" width="1.3" height="0.5" stroke-width="0.0094118" />
<text transform="translate(1.2523,-0.049028) scale(1,-1) scale(0.0069444) " font-family="Helvetica,sans-serif" font-size="20px" stroke="none" fill="black" >Queue system</text>
<rect x="3.1" y="-0.25" width="1.3" height="0.5" stroke-width="0.0094118" />
<text transform="translate(3.4297,-0.049028) scale(1,-1) scale(0.0069444) " font-family="Helvetica,sans-serif" font-size="20px" stroke="none" fill="black" >Connector</text>
<rect x="5.15" y="-0.25" width="1.3" height="0.5" stroke-width="0.0094118" />
<text transform="translate(5.4681,-0.049028) scale(1,-1) scale(0.0069444) " font-family="Helvetica,sans-serif" font-size="20px" stroke="none" fill="black" >Dispatcher</text>
<line x1="0.15" y1="-0.3" x2="0.15" y2="-0.25" stroke-width="0.0094118" stroke-dasharray="0.05, 0.05"/>
<line x1="0.1" y1="-0.25" x2="0.2" y2="-0.25" stroke-width="0.0094118" />
<line x1="0.21" y1="-0.5" x2="1.64" y2="-0.5" stroke-width="0.0094118" />
<polygon points="1.54,-0.475 1.64,-0.5 1.54,-0.525 " stroke-width="0.0094118" fill="black" />
<text transform="translate(0.46951,-0.46569) scale(1,-1) scale(0.0069444) " font-family="Helvetica,sans-serif" font-size="20px" stroke="none" fill="black" >create channel</text>
<text transform="translate(0.90569,-0.63236) scale(1,-1) scale(0.0069444) " font-family="Helvetica,sans-serif" font-size="20px" stroke="none" fill="black" > </text>
<line x1="1.7" y1="-0.25" x2="1.7" y2="-0.5" stroke-width="0.0094118" stroke-dasharray="0.05, 0.05"/>
<line x1="1.65" y1="-0.5" x2="1.75" y2="-0.5" stroke-width="0.0094118" />
<line x1="1.65" y1="-0.5" x2="1.65" y2="-0.5" stroke-width="0.0094118" />
<line x1="1.75" y1="-0.5" x2="1.75" y2="-0.5" stroke-width="0.0094118" />
<line x1="1.65" y1="-0.5" x2="1.75" y2="-0.5" stroke-width="0.0094118" />
<line x1="0.21" y1="-0.75" x2="5.74" y2="-0.75" stroke-width="0.0094118" />
<polygon points="5.64,-0.725 5.74,-0.75 5.64,-0.775 " stroke-width="0.0094118" fill="black" />
<text transform="translate(2.4192,-0.71569) scale(1,-1) scale(0.0069444) " font-family="Helvetica,sans-serif" font-size="20px" stroke="none" fill="black" >register connector</text>
<text transform="translate(2.9557,-0.88236) scale(1,-1) scale(0.0069444) " font-family="Helvetica,sans-serif" font-size="20px" stroke="none" fill="black" > </text>
<line x1="5.8" y1="-0.25" x2="5.8" y2="-0.75" stroke-width="0.0094118" stroke-dasharray="0.05, 0.05"/>
<line x1="5.75" y1="-0.75" x2="5.85" y2="-0.75" stroke-width="0.0094118" />
<line x1="5.75" y1="-0.75" x2="5.75" y2="-0.75" stroke-width="0.0094118" />
<line x1="5.85" y1="-0.75" x2="5.85" y2="-0.75" stroke-width="0.0094118" />
<line x1="5.75" y1="-0.75" x2="5.85" y2="-0.75" stroke-width="0.0094118" />
<line x1="0.21" y1="-1" x2="3.69" y2="-1" stroke-width="0.0094118" />
<polygon points="3.59,-0.975 3.69,-1 3.59,-1.025 " stroke-width="0.0094118" fill="black" />
<text transform="translate(1.8149,-0.96569) scale(1,-1) scale(0.0069444) " font-family="Helvetica,sans-serif" font-size="20px" stroke="none" fill="black" >start</text>
<text transform="translate(1.9307,-1.1324) scale(1,-1) scale(0.0069444) " font-family="Helvetica,sans-serif" font-size="20px" stroke="none" fill="black" > </text>
<line x1="3.75" y1="-0.25" x2="3.75" y2="-1" stroke-width="0.0094118" stroke-dasharray="0.05, 0.05"/>
<line x1="3.7" y1="-1" x2="3.8" y2="-1" stroke-width="0.0094118" />
<line x1="0.1" y1="-0.25" x2="0.1" y2="-1" stroke-width="0.0094118" />
<line x1="0.2" y1="-0.25" x2="0.2" y2="-1" stroke-width="0.0094118" />
<line x1="0.1" y1="-1" x2="0.2" y2="-1" stroke-width="0.0094118" />
<polyline points="3.81,-1.25 4.31,-1.25 4.31,-1.5 3.81,-1.5 " stroke-width="0.0094118" />
<polygon points="3.91,-1.525 3.81,-1.5 3.91,-1.475 " stroke-width="0.0094118" fill="black" />
<text transform="translate(3.81,-1.174) scale(1,-1) scale(0.0069444) " font-family="Helvetica,sans-serif" font-size="20px" stroke="none" fill="black" >waiting for events</text>
<text transform="translate(3.7907,-1.3407) scale(1,-1) scale(0.0069444) " font-family="Helvetica,sans-serif" font-size="20px" stroke="none" fill="black" > </text>
<text transform="translate(3.7907,-1.5074) scale(1,-1) scale(0.0069444) " font-family="Helvetica,sans-serif" font-size="20px" stroke="none" fill="black" > </text>
<text transform="translate(3.7907,-1.674) scale(1,-1) scale(0.0069444) " font-family="Helvetica,sans-serif" font-size="20px" stroke="none" fill="black" > </text>
<line x1="3.69" y1="-1.75" x2="1.76" y2="-1.75" stroke-width="0.0094118" stroke-dasharray="0.05, 0.05"/>
<polygon points="1.86,-1.775 1.76,-1.75 1.86,-1.725 " stroke-width="0.0094118" fill="black" />
<text transform="translate(2.3699,-1.7157) scale(1,-1) scale(0.0069444) " font-family="Helvetica,sans-serif" font-size="20px" stroke="none" fill="black" >notify event</text>
<text transform="translate(2.7057,-1.8824) scale(1,-1) scale(0.0069444) " font-family="Helvetica,sans-serif" font-size="20px" stroke="none" fill="black" > </text>
<line x1="1.7" y1="-0.5" x2="1.7" y2="-1.75" stroke-width="0.0094118" stroke-dasharray="0.05, 0.05"/>
<line x1="1.65" y1="-1.75" x2="1.75" y2="-1.75" stroke-width="0.0094118" />
<line x1="3.7" y1="-1" x2="3.7" y2="-1.75" stroke-width="0.0094118" />
<line x1="3.8" y1="-1" x2="3.8" y2="-1.75" stroke-width="0.0094118" />
<line x1="3.7" y1="-1.75" x2="3.8" y2="-1.75" stroke-width="0.0094118" />
<line x1="1.64" y1="-2" x2="0.21" y2="-2" stroke-width="0.0094118" stroke-dasharray="0.05, 0.05"/>
<polygon points="0.31,-2.025 0.21,-2 0.31,-1.975 " stroke-width="0.0094118" fill="black" />
<text transform="translate(0.56986,-1.9657) scale(1,-1) scale(0.0069444) " font-family="Helvetica,sans-serif" font-size="20px" stroke="none" fill="black" >notify event</text>
<text transform="translate(0.90569,-2.1324) scale(1,-1) scale(0.0069444) " font-family="Helvetica,sans-serif" font-size="20px" stroke="none" fill="black" > </text>
<line x1="0.15" y1="-1" x2="0.15" y2="-2" stroke-width="0.0094118" stroke-dasharray="0.05, 0.05"/>
<line x1="0.1" y1="-2" x2="0.2" y2="-2" stroke-width="0.0094118" />
<line x1="1.65" y1="-1.75" x2="1.65" y2="-2" stroke-width="0.0094118" />
<line x1="1.75" y1="-1.75" x2="1.75" y2="-2" stroke-width="0.0094118" />
<line x1="1.65" y1="-2" x2="1.75" y2="-2" stroke-width="0.0094118" />
<line x1="0.21" y1="-2.25" x2="5.74" y2="-2.25" stroke-width="0.0094118" />
<polygon points="5.64,-2.225 5.74,-2.25 5.64,-2.275 " stroke-width="0.0094118" fill="black" />
<text transform="translate(2.2108,-2.2157) scale(1,-1) scale(0.0069444) " font-family="Helvetica,sans-serif" font-size="20px" stroke="none" fill="black" >get the matching triggers</text>
<text transform="translate(2.9557,-2.3824) scale(1,-1) scale(0.0069444) " font-family="Helvetica,sans-serif" font-size="20px" stroke="none" fill="black" > </text>
<line x1="5.8" y1="-0.75" x2="5.8" y2="-2.25" stroke-width="0.0094118" stroke-dasharray="0.05, 0.05"/>
<line x1="5.75" y1="-2.25" x2="5.85" y2="-2.25" stroke-width="0.0094118" />
<line x1="5.74" y1="-2.5" x2="0.21" y2="-2.5" stroke-width="0.0094118" stroke-dasharray="0.05, 0.05"/>
<polygon points="0.31,-2.525 0.21,-2.5 0.31,-2.475 " stroke-width="0.0094118" fill="black" />
<text transform="translate(2.7435,-2.4657) scale(1,-1) scale(0.0069444) " font-family="Helvetica,sans-serif" font-size="20px" stroke="none" fill="black" >triggers</text>
<text transform="translate(2.9557,-2.6324) scale(1,-1) scale(0.0069444) " font-family="Helvetica,sans-serif" font-size="20px" stroke="none" fill="black" > </text>
<line x1="5.75" y1="-2.25" x2="5.75" y2="-2.5" stroke-width="0.0094118" />
<line x1="5.85" y1="-2.25" x2="5.85" y2="-2.5" stroke-width="0.0094118" />
<line x1="5.75" y1="-2.5" x2="5.85" y2="-2.5" stroke-width="0.0094118" />
<polyline points="0.21,-2.75 0.71,-2.75 0.71,-3 0.21,-3 " stroke-width="0.0094118" />
<polygon points="0.31,-3.025 0.21,-3 0.31,-2.975 " stroke-width="0.0094118" fill="black" />
<text transform="translate(0.21,-2.674) scale(1,-1) scale(0.0069444) " font-family="Helvetica,sans-serif" font-size="20px" stroke="none" fill="black" >Filter evt from triggers</text>
<text transform="translate(0.19069,-2.8407) scale(1,-1) scale(0.0069444) " font-family="Helvetica,sans-serif" font-size="20px" stroke="none" fill="black" > </text>
<text transform="translate(0.19069,-3.0074) scale(1,-1) scale(0.0069444) " font-family="Helvetica,sans-serif" font-size="20px" stroke="none" fill="black" > </text>
<text transform="translate(0.19069,-3.174) scale(1,-1) scale(0.0069444) " font-family="Helvetica,sans-serif" font-size="20px" stroke="none" fill="black" > </text>
<line x1="0.21" y1="-3.25" x2="5.74" y2="-3.25" stroke-width="0.0094118" />
<polygon points="5.64,-3.225 5.74,-3.25 5.64,-3.275 " stroke-width="0.0094118" fill="black" />
<text transform="translate(1.763,-3.2157) scale(1,-1) scale(0.0069444) " font-family="Helvetica,sans-serif" font-size="20px" stroke="none" fill="black" >notify event if match at least one trigger</text>
<text transform="translate(2.9557,-3.3824) scale(1,-1) scale(0.0069444) " font-family="Helvetica,sans-serif" font-size="20px" stroke="none" fill="black" > </text>
<line x1="5.8" y1="-2.5" x2="5.8" y2="-3.25" stroke-width="0.0094118" stroke-dasharray="0.05, 0.05"/>
<line x1="5.75" y1="-3.25" x2="5.85" y2="-3.25" stroke-width="0.0094118" />
<line x1="0.21" y1="-3.5" x2="5.74" y2="-3.5" stroke-width="0.0094118" />
<polygon points="5.64,-3.475 5.74,-3.5 5.64,-3.525 " stroke-width="0.0094118" fill="black" />
<text transform="translate(2.342,-3.4657) scale(1,-1) scale(0.0069444) " font-family="Helvetica,sans-serif" font-size="20px" stroke="none" fill="black" >unregister connector</text>
<text transform="translate(2.9557,-3.6324) scale(1,-1) scale(0.0069444) " font-family="Helvetica,sans-serif" font-size="20px" stroke="none" fill="black" > </text>
<line x1="0.1" y1="-2" x2="0.1" y2="-3.75" stroke-width="0.0094118" />
<line x1="0.2" y1="-2" x2="0.2" y2="-3.75" stroke-width="0.0094118" />
<line x1="0.1" y1="-3.75" x2="0.2" y2="-3.75" stroke-width="0.0094118" />
<line x1="1.7" y1="-2" x2="1.7" y2="-3.75" stroke-width="0.0094118" stroke-dasharray="0.05, 0.05"/>
<line x1="3.75" y1="-1.75" x2="3.75" y2="-3.75" stroke-width="0.0094118" stroke-dasharray="0.05, 0.05"/>
<line x1="5.75" y1="-3.25" x2="5.75" y2="-3.75" stroke-width="0.0094118" />
<line x1="5.85" y1="-3.25" x2="5.85" y2="-3.75" stroke-width="0.0094118" />
<line x1="5.75" y1="-3.75" x2="5.85" y2="-3.75" stroke-width="0.0094118" />
</g>
</svg>
